<svg width="25" height="25" viewBox="0 0 25 25" fill="none" xmlns="http://www.w3.org/2000/svg">
<rect y="0.241943" width="24.442" height="24.2" rx="12.1" fill="#009750"/>
<g clip-path="url(#clip0_708_68)">
<path d="M19.7249 13.631C19.7398 13.631 19.7528 13.6303 19.7674 13.63C19.7832 13.6303 19.799 13.631 19.8149 13.631C20.1871 13.631 20.5026 13.5999 20.7721 13.545C21.7281 13.3634 22.0538 12.9065 22.0538 12.3316C22.0538 12.3253 22.0531 12.3193 22.0528 12.3131C22.0531 12.3068 22.0538 12.3008 22.0538 12.2946C22.0538 11.7197 21.7281 11.2627 20.7721 11.0808C20.5026 11.0262 20.1871 10.9952 19.8149 10.9952C19.799 10.9952 19.7832 10.9958 19.7674 10.9958C19.7528 10.9958 19.7398 10.9952 19.7249 10.9952C17.944 10.9952 14.7913 11.9925 14.7913 12.2946C14.7913 12.3002 14.7932 12.3068 14.7941 12.3131C14.7932 12.3193 14.7913 12.3256 14.7913 12.3316C14.7913 12.6336 17.944 13.631 19.7249 13.631Z" fill="#056145"/>
<path d="M3.67014 13.5452C3.93971 13.5998 4.25489 13.6308 4.62741 13.6308C4.64293 13.6308 4.65909 13.6302 4.67493 13.6302C4.6895 13.6302 4.70247 13.6308 4.71736 13.6308C6.49791 13.6308 9.651 12.6335 9.651 12.3315C9.651 12.3258 9.64909 12.3192 9.64814 12.3129C9.64909 12.307 9.651 12.3004 9.651 12.2945C9.651 11.9924 6.49791 10.9951 4.71736 10.9951C4.70247 10.9951 4.6895 10.996 4.67493 10.996C4.65909 10.9957 4.64293 10.9951 4.62741 10.9951C4.25489 10.9951 3.93939 11.0261 3.67014 11.081C2.71382 11.2626 2.38818 11.7196 2.38818 12.2945C2.38818 12.3007 2.38913 12.3067 2.38913 12.3129C2.38913 12.3192 2.38818 12.3252 2.38818 12.3315C2.38818 12.9067 2.71414 13.3636 3.67014 13.5452Z" fill="#056145"/>
<path d="M12.2365 14.981C12.2304 14.981 12.2241 14.9829 12.2178 14.9841C12.2115 14.9829 12.2048 14.981 12.1991 14.981C11.894 14.981 10.8867 18.1029 10.8867 19.8659C10.8867 19.8806 10.8874 19.8934 10.8874 19.9079C10.8874 19.9236 10.8867 19.9395 10.8867 19.9549C10.8867 20.3238 10.9181 20.6361 10.9732 20.903C11.1569 21.8496 11.6185 22.172 12.1991 22.172C12.2054 22.172 12.2115 22.1711 12.2178 22.1711C12.2241 22.1711 12.2301 22.172 12.2365 22.172C12.8171 22.172 13.2786 21.8493 13.4623 20.9027C13.5175 20.6358 13.5488 20.3238 13.5488 19.9549C13.5488 19.9395 13.5482 19.9236 13.5479 19.9079C13.5482 19.8934 13.5488 19.8806 13.5488 19.8659C13.5488 18.1029 12.5415 14.981 12.2365 14.981Z" fill="#056145"/>
<path d="M12.1988 9.7073C12.2049 9.7073 12.2112 9.70541 12.2175 9.70449C12.2239 9.70541 12.2305 9.7073 12.2362 9.7073C12.5413 9.7073 13.5486 6.58538 13.5486 4.82246C13.5486 4.80772 13.5479 4.79485 13.5479 4.78042C13.5479 4.76474 13.5486 4.74875 13.5486 4.73338C13.5486 4.36455 13.5172 4.05217 13.4621 3.78527C13.2784 2.83871 12.8169 2.5163 12.2362 2.5163C12.2299 2.5163 12.2239 2.51724 12.2175 2.51724C12.2112 2.51724 12.2052 2.5163 12.1988 2.5163C11.6182 2.5163 11.1567 2.83903 10.9729 3.78559C10.9178 4.05249 10.8865 4.36455 10.8865 4.73338C10.8865 4.74875 10.8871 4.76474 10.8874 4.78042C10.8871 4.79485 10.8865 4.80772 10.8865 4.82246C10.8865 6.58538 11.8938 9.7073 12.1988 9.7073Z" fill="#056145"/>
<path d="M3.1154 9.23964C3.64154 9.10323 4.25765 9.02574 4.98494 9.02574C5.01567 9.02574 5.04671 9.02731 5.07775 9.02763C5.10627 9.02763 5.13162 9.02574 5.16044 9.02574C5.28177 9.02574 5.40307 9.02951 5.52472 9.03515C5.50888 9.01916 5.49432 9.00347 5.47784 8.98716C5.45599 8.96584 5.43287 8.94484 5.41099 8.92318C4.8972 8.41416 4.50155 7.94339 4.1997 7.50557C3.30989 6.24601 3.24147 5.32989 3.65073 4.6377C3.90984 4.35449 4.1829 4.08413 4.46924 3.82758C5.16836 3.42206 6.09332 3.49011 7.36513 4.3708C7.80765 4.66969 8.28312 5.06142 8.79755 5.57044C8.81909 5.59207 8.8403 5.61468 8.86186 5.63663C8.87833 5.65262 8.89417 5.66736 8.91062 5.68273C8.90461 5.5626 8.90082 5.44247 8.90082 5.32237C8.90082 5.29381 8.9027 5.26874 8.90302 5.2405C8.90238 5.20976 8.90082 5.17871 8.90082 5.1483C8.90082 4.42852 8.97938 3.8188 9.11684 3.29784C9.48271 1.82095 10.2914 1.12375 11.3399 0.902006C11.631 0.880367 11.9243 0.865624 12.2208 0.865624C12.5176 0.865624 12.811 0.880367 13.1021 0.902006C14.1506 1.12375 14.9593 1.82095 15.3252 3.29755C15.4626 3.81848 15.5412 4.42852 15.5412 5.1483C15.5412 5.17871 15.5396 5.20976 15.539 5.2405C15.5393 5.26842 15.5412 5.29381 15.5412 5.32237C15.5412 5.44247 15.5374 5.5626 15.5314 5.68273C15.5478 5.66736 15.5637 5.65262 15.5801 5.63663C15.6017 5.61468 15.6229 5.59207 15.6444 5.57044C16.1586 5.06142 16.6343 4.67001 17.0765 4.37111C18.3484 3.49011 19.2736 3.42206 19.9727 3.82758C20.2591 4.08413 20.5322 4.35449 20.7913 4.6377C21.2005 5.32989 21.1321 6.24601 20.2426 7.50525C19.9408 7.94339 19.5451 8.41416 19.031 8.92318C19.0091 8.94484 18.986 8.96584 18.9641 8.98716C18.9477 9.00347 18.9331 9.01916 18.9173 9.03515C19.0386 9.0292 19.1602 9.02574 19.2816 9.02574C19.3104 9.02574 19.3357 9.02763 19.3642 9.02763C19.3953 9.02731 19.4263 9.02574 19.457 9.02574C20.1843 9.02574 20.8001 9.10323 21.3263 9.23964C22.8176 9.60158 23.5221 10.4026 23.7457 11.4404C23.7679 11.7289 23.7828 12.0191 23.7828 12.3129C23.7828 12.6068 23.7679 12.8973 23.7457 13.1855C23.5221 14.2236 22.8176 15.0243 21.3266 15.3862C20.8005 15.5227 20.1843 15.6005 19.457 15.6005C19.4263 15.6005 19.3953 15.5986 19.3642 15.5983C19.3357 15.5986 19.3104 15.6005 19.2816 15.6005C19.1602 15.6005 19.0386 15.5967 18.9173 15.5907C18.9331 15.6067 18.9477 15.6224 18.9641 15.6387C18.986 15.66 19.0091 15.681 19.031 15.7027C19.5451 16.2117 19.9404 16.6825 20.2423 17.1203C21.1321 18.3799 21.2005 19.296 20.7913 19.9882C20.5322 20.2714 20.2588 20.5421 19.9727 20.7986C19.2736 21.2038 18.3487 21.1361 17.0769 20.2551C16.6343 19.9562 16.1589 19.5645 15.6444 19.0554C15.6229 19.0341 15.6017 19.0112 15.5801 18.9893C15.5637 18.9733 15.5478 18.9588 15.5314 18.9432C15.5374 19.0633 15.5412 19.1837 15.5412 19.3038C15.5412 19.3324 15.5393 19.3575 15.539 19.3857C15.5396 19.4161 15.5412 19.4472 15.5412 19.4776C15.5412 20.1974 15.4626 20.8074 15.3252 21.3284C14.9593 22.8049 14.1506 23.5021 13.1021 23.7239C12.811 23.7455 12.5176 23.7606 12.2208 23.7606C11.9243 23.7606 11.631 23.7455 11.3399 23.7239C10.2914 23.5021 9.48271 22.8049 9.11684 21.3287C8.97938 20.8074 8.90082 20.1977 8.90082 19.4776C8.90082 19.4472 8.90238 19.4161 8.90302 19.3857C8.9027 19.3575 8.90082 19.3324 8.90082 19.3038C8.90082 19.1837 8.90461 19.0633 8.91062 18.9432C8.89417 18.9588 8.87833 18.9733 8.86186 18.9893C8.8403 19.0112 8.81909 19.0341 8.79755 19.0554C8.28344 19.5645 7.80765 19.9562 7.36545 20.2551C6.09363 21.1361 5.16836 21.2038 4.46924 20.7986C4.1829 20.5421 3.90984 20.2714 3.65073 19.9882C3.24147 19.296 3.30989 18.3799 4.19938 17.1206C4.50124 16.6828 4.89688 16.2117 5.41099 15.7027C5.43287 15.681 5.45599 15.66 5.47784 15.6387C5.49432 15.6224 5.50888 15.6067 5.52472 15.5907C5.40307 15.5967 5.28177 15.6005 5.16044 15.6005C5.13162 15.6005 5.10627 15.5986 5.07775 15.5983C5.04671 15.5986 5.01567 15.6005 4.98494 15.6005C4.25797 15.6005 3.64186 15.5227 3.11572 15.3866C1.62438 15.0243 0.919889 14.2236 0.696252 13.1855C0.674078 12.8973 0.659191 12.6068 0.659191 12.3129C0.659191 12.0191 0.674078 11.7289 0.696252 11.4404C0.919889 10.4026 1.62438 9.60189 3.1154 9.23964ZM12.2208 24.4129C18.9594 24.4129 24.442 18.9849 24.442 12.3129C24.442 5.64101 18.9594 0.212952 12.2208 0.212952C5.48227 0.212952 0 5.64101 0 12.3129C0 18.9849 5.48227 24.4129 12.2208 24.4129Z" fill="#056145"/>
<path d="M15.1384 9.41834C15.141 9.42209 15.1435 9.42618 15.1463 9.4293C15.3019 9.58299 16.8806 9.03537 17.7875 8.13777C17.7948 8.13024 17.8011 8.12335 17.8084 8.1158C17.8167 8.10796 17.8252 8.10012 17.8331 8.09227C18.0229 7.90441 18.1673 7.72973 18.2766 7.566C18.6697 6.99144 18.6007 6.59468 18.3051 6.30206C18.302 6.29862 18.2981 6.2961 18.295 6.29296C18.2918 6.28983 18.2893 6.28606 18.2861 6.28294C17.9903 5.99031 17.5895 5.92195 17.0092 6.31116C16.8439 6.41935 16.6671 6.56238 16.4777 6.75024C16.4698 6.75808 16.4619 6.76655 16.454 6.77471C16.4463 6.78192 16.4394 6.78819 16.4318 6.79542C15.5252 7.69334 14.9721 9.25649 15.1273 9.4105C15.1305 9.4133 15.1346 9.41582 15.1384 9.41834Z" fill="#056145"/>
<path d="M9.26493 15.2328C9.26239 15.2291 9.25985 15.225 9.25701 15.2218C9.10146 15.0682 7.5227 15.6158 6.61581 16.5134C6.60852 16.5209 6.60219 16.5278 6.59491 16.5353C6.58667 16.5432 6.57812 16.551 6.5702 16.5589C6.38046 16.7467 6.236 16.9214 6.12672 17.0851C5.73362 17.6597 5.80267 18.0565 6.0982 18.3494C6.10138 18.3525 6.10519 18.355 6.10834 18.3582C6.11152 18.3613 6.11404 18.3651 6.11753 18.3682C6.41309 18.6608 6.81379 18.7292 7.39409 18.34C7.55946 18.2318 7.7362 18.0888 7.92563 17.9009C7.93355 17.8931 7.94147 17.8846 7.94939 17.8764C7.95699 17.8692 7.96396 17.863 7.97156 17.8557C8.87816 16.9578 9.43123 15.3947 9.276 15.2407C9.27285 15.2378 9.26872 15.2353 9.26493 15.2328Z" fill="#056145"/>
<path d="M17.9065 16.6357C17.8985 16.6278 17.89 16.62 17.8818 16.6121C17.8745 16.6046 17.8681 16.5977 17.8605 16.5902C16.9539 15.6926 15.3749 15.1449 15.2197 15.2986C15.2165 15.3018 15.2143 15.3058 15.2117 15.3096C15.2079 15.3124 15.2035 15.3146 15.2006 15.3174C15.0451 15.4714 15.5985 17.0346 16.5051 17.9325C16.5127 17.9401 16.5197 17.946 16.5273 17.9532C16.5352 17.9614 16.5428 17.9699 16.551 17.9777C16.7404 18.1656 16.9172 18.3086 17.0826 18.4168C17.6629 18.806 18.0636 18.7376 18.3591 18.445C18.3623 18.4419 18.3651 18.4381 18.3683 18.435C18.3715 18.4318 18.3749 18.4293 18.3784 18.4262C18.674 18.1332 18.743 17.7365 18.3496 17.1619C18.2406 16.9982 18.0959 16.8235 17.9065 16.6357Z" fill="#056145"/>
<path d="M6.53109 8.0572C6.53901 8.06504 6.54757 8.07289 6.5558 8.08073C6.56309 8.08825 6.56942 8.09515 6.57702 8.10268C7.48362 9.0003 9.0627 9.5479 9.2179 9.39421C9.22108 9.39108 9.22328 9.38699 9.22582 9.38324C9.22964 9.38073 9.23406 9.37823 9.23692 9.3754C9.39244 9.22139 8.83905 7.65824 7.93247 6.76033C7.92487 6.75311 7.91791 6.74682 7.91031 6.73961C7.90239 6.73146 7.89478 6.72299 7.88655 6.71515C7.69712 6.52728 7.52036 6.38428 7.35501 6.27606C6.77468 5.88685 6.37398 5.95522 6.07843 6.24784C6.07527 6.25099 6.07241 6.25474 6.06926 6.25789C6.06608 6.26101 6.06259 6.26352 6.05912 6.26667C5.76356 6.55959 5.69452 6.95635 6.08793 7.53093C6.1969 7.69464 6.34167 7.86965 6.53109 8.0572Z" fill="#056145"/>
<path d="M13.3701 10.4143C13.3657 10.4184 13.3619 10.4222 13.3575 10.4263C12.8364 10.9422 12.5187 11.8404 12.608 11.9286C12.6096 11.9305 12.6121 11.9317 12.6143 11.9333C12.6159 11.9355 12.6172 11.9377 12.6191 11.9395C12.7081 12.028 13.6153 11.7131 14.1364 11.1975C14.1405 11.1931 14.1443 11.1893 14.1484 11.1849C14.1532 11.1805 14.1579 11.1758 14.1627 11.1714C14.2716 11.0636 14.3547 10.9632 14.4174 10.8691C14.6432 10.5389 14.6036 10.3108 14.4335 10.1427C14.4319 10.1408 14.4297 10.1393 14.4278 10.1377C14.4259 10.1358 14.4247 10.1336 14.4227 10.1321C14.253 9.96365 14.0227 9.92444 13.6891 10.1481C13.5941 10.2101 13.4927 10.2923 13.3838 10.4002C13.3793 10.4049 13.3746 10.4096 13.3701 10.4143Z" fill="#056145"/>
<path d="M9.98984 14.5313C9.99172 14.5332 9.99331 14.535 9.9949 14.5369C10.165 14.705 10.3953 14.7445 10.7285 14.5206C10.8236 14.4585 10.9249 14.3763 11.0339 14.2684C11.0386 14.264 11.0431 14.259 11.0475 14.2546C11.0519 14.2503 11.0561 14.2468 11.0602 14.2424C11.5813 13.7268 11.899 12.8286 11.8096 12.7401C11.8081 12.7385 11.8055 12.7373 11.8033 12.7357C11.8017 12.7335 11.8005 12.731 11.7989 12.7294C11.7095 12.641 10.8023 12.9556 10.2816 13.4715C10.2771 13.4756 10.2737 13.4797 10.2692 13.484C10.2648 13.4884 10.2597 13.4928 10.2553 13.4975C10.1463 13.6054 10.063 13.7058 10.0006 13.7999C9.77443 14.1298 9.81434 14.3578 9.98412 14.5263C9.98603 14.5278 9.98793 14.5294 9.98984 14.5313Z" fill="#056145"/>
<path d="M14.1626 13.4975C14.1578 13.4928 14.1531 13.4884 14.1483 13.484C14.1442 13.4796 14.1407 13.4758 14.1363 13.4714C13.6152 12.9555 12.7083 12.6409 12.619 12.7294C12.6171 12.7309 12.6158 12.7335 12.6142 12.7357C12.6123 12.7372 12.6098 12.7385 12.6079 12.74C12.5189 12.8285 12.8366 13.7267 13.3574 14.2424C13.3618 14.2467 13.3659 14.2502 13.37 14.2546C13.3748 14.2593 13.3792 14.264 13.3837 14.2687C13.4926 14.3763 13.5943 14.4588 13.6893 14.5208C14.0226 14.7445 14.2529 14.7053 14.4227 14.5368C14.4246 14.535 14.4261 14.5331 14.4281 14.5312C14.4299 14.5293 14.4318 14.5281 14.4337 14.5262C14.6035 14.3578 14.6431 14.1298 14.4173 13.7998C14.3546 13.7057 14.2716 13.6054 14.1626 13.4975Z" fill="#056145"/>
<path d="M10.2552 11.1714C10.2599 11.1761 10.2647 11.1805 10.2694 11.1849C10.2735 11.1893 10.277 11.193 10.2815 11.1974C10.8025 11.7133 11.7094 12.0279 11.7988 11.9395C11.8007 11.9379 11.8019 11.9354 11.8035 11.9332C11.8054 11.9316 11.808 11.9304 11.8098 11.9288C11.8989 11.8404 11.5811 10.9421 11.0604 10.4265C11.0559 10.4221 11.0518 10.4187 11.0477 10.4143C11.0429 10.4096 11.0385 10.4049 11.0341 10.4002C10.9251 10.2926 10.8234 10.2101 10.7284 10.148C10.3952 9.92438 10.1649 9.96358 9.99509 10.132C9.99319 10.1339 9.9916 10.1358 9.98972 10.1377C9.98781 10.1395 9.9859 10.1408 9.984 10.1427C9.81422 10.3111 9.77463 10.5391 10.0005 10.869C10.0632 10.9631 10.1462 11.0635 10.2552 11.1714Z" fill="#056145"/>
</g>
<defs>
<clipPath id="clip0_708_68">
<rect width="24.442" height="24.442" fill="white"/>
</clipPath>
</defs>
</svg>
