<svg width="24" height="24" viewBox="0 0 24 24" fill="none" xmlns="http://www.w3.org/2000/svg">
<rect y="0.23764" width="24" height="23.7624" rx="11.8812" fill="#F53D54"/>
<path d="M19.3681 13.3845C19.3827 13.3845 19.3955 13.3839 19.4098 13.3836C19.4253 13.3839 19.4409 13.3845 19.4565 13.3845C19.8219 13.3845 20.1317 13.354 20.3964 13.3001C21.3351 13.1218 21.6549 12.6731 21.6549 12.1086C21.6549 12.1024 21.6542 12.0966 21.6539 12.0904C21.6542 12.0843 21.6549 12.0784 21.6549 12.0723C21.6549 11.5078 21.3351 11.059 20.3964 10.8804C20.1317 10.8268 19.8219 10.7964 19.4565 10.7964C19.4409 10.7964 19.4253 10.797 19.4098 10.797C19.3955 10.797 19.3827 10.7964 19.3681 10.7964C17.6194 10.7964 14.5237 11.7757 14.5237 12.0723C14.5237 12.0778 14.5256 12.0843 14.5265 12.0904C14.5256 12.0966 14.5237 12.1027 14.5237 12.1086C14.5237 12.4051 17.6194 13.3845 19.3681 13.3845Z" fill="#A80000"/>
<path d="M3.60375 13.3003C3.86844 13.3539 4.17792 13.3843 4.54371 13.3843C4.55895 13.3843 4.57481 13.3837 4.59036 13.3837C4.60467 13.3837 4.61741 13.3843 4.63203 13.3843C6.38038 13.3843 9.47645 12.405 9.47645 12.1085C9.47645 12.1029 9.47458 12.0964 9.47364 12.0903C9.47458 12.0844 9.47645 12.078 9.47645 12.0721C9.47645 11.7756 6.38038 10.7962 4.63203 10.7962C4.61741 10.7962 4.60467 10.7972 4.59036 10.7972C4.57481 10.7969 4.55895 10.7962 4.54371 10.7962C4.17792 10.7962 3.86813 10.8267 3.60375 10.8806C2.66472 11.0589 2.34497 11.5076 2.34497 12.0721C2.34497 12.0783 2.3459 12.0841 2.3459 12.0903C2.3459 12.0964 2.34497 12.1023 2.34497 12.1085C2.34497 12.6733 2.66503 13.122 3.60375 13.3003Z" fill="#A80000"/>
<path d="M12.0153 14.7101C12.0094 14.7101 12.0032 14.712 11.9969 14.7132C11.9907 14.712 11.9842 14.7101 11.9786 14.7101C11.6791 14.7101 10.6899 17.7756 10.6899 19.5066C10.6899 19.5211 10.6906 19.5337 10.6906 19.5479C10.6906 19.5633 10.6899 19.579 10.6899 19.5941C10.6899 19.9563 10.7207 20.263 10.7749 20.5251C10.9553 21.4545 11.4085 21.7711 11.9786 21.7711C11.9848 21.7711 11.9907 21.7701 11.9969 21.7701C12.0032 21.7701 12.0091 21.7711 12.0153 21.7711C12.5854 21.7711 13.0386 21.4542 13.219 20.5248C13.2731 20.2627 13.3039 19.9563 13.3039 19.5941C13.3039 19.579 13.3033 19.5633 13.303 19.5479C13.3033 19.5337 13.3039 19.5211 13.3039 19.5066C13.3039 17.7756 12.3148 14.7101 12.0153 14.7101Z" fill="#A80000"/>
<path d="M11.9783 9.53179C11.9842 9.53179 11.9905 9.52994 11.9967 9.52904C12.0029 9.52994 12.0094 9.53179 12.015 9.53179C12.3146 9.53179 13.3037 6.46633 13.3037 4.73529C13.3037 4.72081 13.303 4.70817 13.303 4.69401C13.303 4.67861 13.3037 4.6629 13.3037 4.64782C13.3037 4.28565 13.2729 3.97893 13.2187 3.71685C13.0384 2.78741 12.5852 2.47083 12.015 2.47083C12.0088 2.47083 12.0029 2.47175 11.9967 2.47175C11.9905 2.47175 11.9845 2.47083 11.9783 2.47083C11.4082 2.47083 10.955 2.78772 10.7746 3.71716C10.7205 3.97924 10.6897 4.28565 10.6897 4.64782C10.6897 4.6629 10.6903 4.67861 10.6906 4.69401C10.6903 4.70817 10.6897 4.72081 10.6897 4.73529C10.6897 6.46633 11.6788 9.53179 11.9783 9.53179Z" fill="#A80000"/>
<path d="M3.05906 9.07257C3.57569 8.93862 4.18066 8.86253 4.8948 8.86253C4.92497 8.86253 4.95545 8.86407 4.98593 8.86438C5.01394 8.86438 5.03882 8.86253 5.06712 8.86253C5.18626 8.86253 5.30537 8.86624 5.42482 8.87177C5.40926 8.85607 5.39496 8.84067 5.37878 8.82465C5.35733 8.80372 5.33462 8.78309 5.31314 8.76182C4.80864 8.26201 4.42015 7.79976 4.12375 7.36985C3.25003 6.13306 3.18286 5.23352 3.58471 4.55384C3.83914 4.27575 4.10726 4.01028 4.38842 3.75837C5.0749 3.36019 5.98313 3.42701 7.23194 4.29177C7.66646 4.58525 8.13334 4.9699 8.63846 5.46971C8.65961 5.49096 8.68044 5.51315 8.70161 5.5347C8.71778 5.55041 8.73334 5.56488 8.74949 5.57997C8.74358 5.46202 8.73986 5.34406 8.73986 5.22613C8.73986 5.19809 8.74171 5.17347 8.74202 5.14574C8.7414 5.11556 8.73986 5.08507 8.73986 5.0552C8.73986 4.34844 8.817 3.74975 8.95198 3.23821C9.31123 1.78803 10.1053 1.10343 11.1348 0.885701C11.4207 0.864452 11.7087 0.849976 11.9999 0.849976C12.2913 0.849976 12.5793 0.864452 12.8652 0.885701C13.8947 1.10343 14.6888 1.78803 15.048 3.23793C15.183 3.74944 15.2601 4.34844 15.2601 5.0552C15.2601 5.08507 15.2586 5.11556 15.258 5.14574C15.2583 5.17316 15.2601 5.19809 15.2601 5.22613C15.2601 5.34406 15.2564 5.46202 15.2505 5.57997C15.2667 5.56488 15.2822 5.55041 15.2984 5.5347C15.3196 5.51315 15.3404 5.49096 15.3615 5.46971C15.8664 4.9699 16.3335 4.58556 16.7677 4.29207C18.0166 3.42701 18.9251 3.36019 19.6116 3.75837C19.8927 4.01028 20.1609 4.27575 20.4153 4.55384C20.8171 5.23352 20.75 6.13306 19.8766 7.36954C19.5802 7.79976 19.1917 8.26201 18.6869 8.76182C18.6654 8.78309 18.6427 8.80372 18.6212 8.82465C18.605 8.84067 18.5907 8.85607 18.5752 8.87177C18.6943 8.86593 18.8137 8.86253 18.9329 8.86253C18.9612 8.86253 18.9861 8.86438 19.0141 8.86438C19.0446 8.86407 19.075 8.86253 19.1052 8.86253C19.8193 8.86253 20.424 8.93862 20.9406 9.07257C22.405 9.42796 23.0967 10.2145 23.3163 11.2335C23.3381 11.5169 23.3527 11.8017 23.3527 12.0903C23.3527 12.3789 23.3381 12.664 23.3163 12.947C23.0967 13.9664 22.405 14.7526 20.9409 15.108C20.4243 15.242 19.8193 15.3184 19.1052 15.3184C19.075 15.3184 19.0446 15.3165 19.0141 15.3162C18.9861 15.3165 18.9612 15.3184 18.9329 15.3184C18.8137 15.3184 18.6943 15.3147 18.5752 15.3088C18.5907 15.3245 18.605 15.3399 18.6212 15.3559C18.6427 15.3769 18.6654 15.3975 18.6869 15.4188C19.1917 15.9186 19.5798 16.3808 19.8762 16.8107C20.75 18.0475 20.8171 18.9471 20.4153 19.6267C20.1609 19.9048 19.8924 20.1706 19.6116 20.4225C18.9251 20.8204 18.0169 20.7539 16.7681 19.8888C16.3335 19.5953 15.8667 19.2107 15.3615 18.7109C15.3404 18.6899 15.3196 18.6675 15.2984 18.6459C15.2822 18.6302 15.2667 18.616 15.2505 18.6006C15.2564 18.7186 15.2601 18.8368 15.2601 18.9548C15.2601 18.9828 15.2583 19.0074 15.258 19.0352C15.2586 19.065 15.2601 19.0955 15.2601 19.1254C15.2601 19.8322 15.183 20.4311 15.048 20.9427C14.6888 22.3926 13.8947 23.0772 12.8652 23.2949C12.5793 23.3161 12.2913 23.3309 11.9999 23.3309C11.7087 23.3309 11.4207 23.3161 11.1348 23.2949C10.1053 23.0772 9.31123 22.3926 8.95198 20.943C8.817 20.4311 8.73986 19.8325 8.73986 19.1254C8.73986 19.0955 8.7414 19.065 8.74202 19.0352C8.74171 19.0074 8.73986 18.9828 8.73986 18.9548C8.73986 18.8368 8.74358 18.7186 8.74949 18.6006C8.73334 18.616 8.71778 18.6302 8.70161 18.6459C8.68044 18.6675 8.65961 18.6899 8.63846 18.7109C8.13365 19.2107 7.66646 19.5953 7.23226 19.8888C5.98344 20.7539 5.0749 20.8204 4.38842 20.4225C4.10726 20.1706 3.83914 19.9048 3.58471 19.6267C3.18286 18.9471 3.25003 18.0475 4.12344 16.811C4.41984 16.3811 4.80833 15.9186 5.31314 15.4188C5.33462 15.3975 5.35733 15.3769 5.37878 15.3559C5.39496 15.3399 5.40926 15.3245 5.42482 15.3088C5.30537 15.3147 5.18626 15.3184 5.06712 15.3184C5.03882 15.3184 5.01394 15.3165 4.98593 15.3162C4.95545 15.3165 4.92497 15.3184 4.8948 15.3184C4.18097 15.3184 3.576 15.242 3.05938 15.1083C1.595 14.7526 0.903254 13.9664 0.683662 12.947C0.661889 12.664 0.64727 12.3789 0.64727 12.0903C0.64727 11.8017 0.661889 11.5169 0.683662 11.2335C0.903254 10.2145 1.595 9.42826 3.05906 9.07257ZM11.9999 23.9715C18.6166 23.9715 24 18.6416 24 12.0903C24 5.53901 18.6166 0.209106 11.9999 0.209106C5.38313 0.209106 0 5.53901 0 12.0903C0 18.6416 5.38313 23.9715 11.9999 23.9715Z" fill="#A80000"/>
<path d="M14.8645 9.24804C14.867 9.25173 14.8695 9.25574 14.8723 9.25881C15.025 9.40972 16.5753 8.872 17.4658 7.99063C17.4729 7.98324 17.4791 7.97647 17.4863 7.96906C17.4944 7.96136 17.5028 7.95366 17.5105 7.94596C17.6969 7.76149 17.8387 7.58998 17.946 7.4292C18.332 6.86503 18.2642 6.47545 17.974 6.18812C17.9709 6.18474 17.9671 6.18227 17.9641 6.17918C17.9609 6.17612 17.9584 6.17241 17.9553 6.16934C17.6648 5.88201 17.2714 5.81488 16.7015 6.19705C16.5392 6.30329 16.3656 6.44373 16.1796 6.62819C16.1718 6.63589 16.1641 6.64421 16.1563 6.65222C16.1488 6.6593 16.142 6.66545 16.1345 6.67256C15.2443 7.55424 14.7012 9.08912 14.8536 9.24035C14.8568 9.2431 14.8608 9.24557 14.8645 9.24804Z" fill="#A80000"/>
<path d="M9.09729 14.9573C9.09479 14.9536 9.0923 14.9496 9.08952 14.9466C8.93678 14.7957 7.38657 15.3334 6.49608 16.2147C6.48892 16.2221 6.48271 16.2289 6.47556 16.2363C6.46747 16.244 6.45907 16.2517 6.45129 16.2594C6.26498 16.4439 6.12314 16.6154 6.01584 16.7762C5.62984 17.3404 5.69764 17.7299 5.98783 18.0176C5.99095 18.0206 5.99469 18.0231 5.99779 18.0262C6.00091 18.0292 6.00338 18.033 6.00681 18.036C6.29702 18.3234 6.69048 18.3905 7.26028 18.0083C7.42267 17.9021 7.59621 17.7616 7.78221 17.5772C7.78999 17.5695 7.79776 17.5612 7.80554 17.5531C7.813 17.5461 7.81984 17.5399 7.82731 17.5328C8.71751 16.6511 9.26059 15.1162 9.10816 14.965C9.10507 14.9623 9.10101 14.9598 9.09729 14.9573Z" fill="#A80000"/>
<path d="M17.5827 16.3348C17.5749 16.3271 17.5665 16.3194 17.5584 16.3117C17.5512 16.3043 17.545 16.2975 17.5375 16.2902C16.6473 15.4088 15.0968 14.8711 14.9444 15.022C14.9413 15.025 14.9391 15.0291 14.9367 15.0327C14.9329 15.0355 14.9286 15.0377 14.9258 15.0404C14.773 15.1917 15.3164 16.7266 16.2066 17.6083C16.2141 17.6156 16.2209 17.6215 16.2284 17.6286C16.2362 17.6366 16.2436 17.6449 16.2517 17.6526C16.4377 17.8371 16.6113 17.9775 16.7736 18.0837C17.3434 18.4659 17.7369 18.3988 18.0271 18.1114C18.0302 18.1084 18.033 18.1047 18.0361 18.1016C18.0393 18.0985 18.0427 18.096 18.0461 18.093C18.3363 17.8053 18.4041 17.4158 18.0178 16.8516C17.9108 16.6908 17.7687 16.5193 17.5827 16.3348Z" fill="#A80000"/>
<path d="M6.41316 7.9115C6.42094 7.9192 6.42934 7.9269 6.43742 7.9346C6.44458 7.94199 6.45079 7.94876 6.45826 7.95615C7.34847 8.83754 8.89899 9.37524 9.05139 9.22432C9.05451 9.22126 9.05667 9.21724 9.05916 9.21356C9.06291 9.21109 9.06725 9.20864 9.07006 9.20586C9.22277 9.05464 8.67939 7.51975 7.7892 6.63807C7.78174 6.63099 7.7749 6.62482 7.76743 6.61773C7.75966 6.60973 7.75219 6.60141 7.74411 6.59371C7.55811 6.40924 7.38454 6.26883 7.22218 6.16257C6.65235 5.78039 6.25889 5.84752 5.96868 6.13486C5.96558 6.13795 5.96278 6.14163 5.95968 6.14472C5.95656 6.14779 5.95313 6.15026 5.94972 6.15335C5.65951 6.44097 5.59171 6.83055 5.97802 7.39474C6.08501 7.55549 6.22716 7.72734 6.41316 7.9115Z" fill="#A80000"/>
<path d="M13.1283 10.226C13.1239 10.23 13.1202 10.2337 13.1159 10.2377C12.6042 10.7443 12.2922 11.6263 12.3799 11.7129C12.3815 11.7147 12.384 11.7159 12.3862 11.7175C12.3877 11.7196 12.389 11.7218 12.3908 11.7236C12.4782 11.8105 13.369 11.5013 13.8807 10.995C13.8847 10.9907 13.8885 10.987 13.8925 10.9827C13.8972 10.9784 13.9019 10.9738 13.9065 10.9694C14.0135 10.8635 14.095 10.765 14.1566 10.6726C14.3784 10.3483 14.3395 10.1244 14.1725 9.95932C14.1709 9.95747 14.1687 9.95593 14.1668 9.95441C14.165 9.95255 14.1637 9.95039 14.1619 9.94885C13.9952 9.78348 13.769 9.74499 13.4415 9.96455C13.3482 10.0255 13.2487 10.1062 13.1417 10.2122C13.1373 10.2168 13.1327 10.2214 13.1283 10.226Z" fill="#A80000"/>
<path d="M9.80922 14.2685C9.81107 14.2703 9.81263 14.2722 9.81419 14.274C9.98123 14.4391 10.2073 14.4779 10.5345 14.258C10.6279 14.197 10.7274 14.1163 10.8344 14.0104C10.8391 14.0061 10.8434 14.0012 10.8478 13.9968C10.8521 13.9925 10.8562 13.9891 10.8602 13.9848C11.3719 13.4785 11.6838 12.5965 11.5961 12.5097C11.5946 12.5081 11.5921 12.5069 11.5899 12.5054C11.5883 12.5032 11.5871 12.5008 11.5856 12.4992C11.4978 12.4124 10.607 12.7213 10.0957 13.2279C10.0913 13.2319 10.0879 13.2359 10.0835 13.2402C10.0792 13.2445 10.0742 13.2488 10.0699 13.2534C9.96287 13.3594 9.88105 13.4579 9.81978 13.5503C9.59771 13.8743 9.6369 14.0982 9.8036 14.2635C9.80547 14.2651 9.80735 14.2666 9.80922 14.2685Z" fill="#A80000"/>
<path d="M13.9064 13.2534C13.9018 13.2488 13.8971 13.2445 13.8924 13.2402C13.8884 13.2359 13.885 13.2322 13.8806 13.2279C13.3689 12.7213 12.4784 12.4124 12.3907 12.4992C12.3889 12.5008 12.3876 12.5032 12.3861 12.5054C12.3842 12.5069 12.3817 12.5081 12.3799 12.5097C12.2924 12.5965 12.6044 13.4785 13.1158 13.9848C13.1201 13.9891 13.1242 13.9925 13.1282 13.9968C13.1329 14.0015 13.1372 14.0061 13.1416 14.0107C13.2486 14.1163 13.3484 14.1973 13.4417 14.2583C13.769 14.4779 13.9951 14.4394 14.1618 14.274C14.1637 14.2722 14.1652 14.2703 14.1671 14.2685C14.1689 14.2666 14.1708 14.2654 14.1727 14.2635C14.3394 14.0982 14.3783 13.8743 14.1565 13.5503C14.0949 13.4579 14.0134 13.3594 13.9064 13.2534Z" fill="#A80000"/>
<path d="M10.0697 10.9694C10.0744 10.974 10.0791 10.9783 10.0837 10.9826C10.0878 10.9869 10.0912 10.9906 10.0956 10.9949C10.6072 11.5015 11.4977 11.8104 11.5854 11.7236C11.5873 11.722 11.5885 11.7196 11.5901 11.7174C11.592 11.7159 11.5945 11.7147 11.5963 11.7131C11.6837 11.6263 11.3717 10.7443 10.8604 10.238C10.856 10.2337 10.852 10.2303 10.848 10.226C10.8433 10.2213 10.8389 10.2167 10.8346 10.2121C10.7276 10.1065 10.6277 10.0255 10.5344 9.96451C10.2072 9.74492 9.98111 9.78342 9.81438 9.9488C9.81251 9.95063 9.81095 9.95249 9.8091 9.95434C9.80723 9.95619 9.80535 9.95743 9.80348 9.95926C9.63678 10.1246 9.5979 10.3485 9.81966 10.6725C9.88124 10.7649 9.96275 10.8634 10.0697 10.9694Z" fill="#A80000"/>
</svg>
